{
  "asset": {
    "generator": "Khronos glTF Blender I/O v3.2.43",
    "version": "2.0"
  },
  "scene": 0,
  "scenes": [
    {
      "name": "banana",
      "nodes": [0]
    }
  ],
  "nodes": [
    {
      "mesh": 0,
      "name": "\u041a\u0443\u0431.004"
    }
  ],
  "materials": [
    {
      "doubleSided": true,
      "name": "\u041c\u0430\u0442\u0435\u0440\u0438\u0430\u043b",
      "pbrMetallicRoughness": {
        "baseColorTexture": {
          "index": 0
        },
        "metallicFactor": 0,
        "roughnessFactor": 0.7227272391319275
      }
    }
  ],
  "meshes": [
    {
      "name": "\u041a\u0443\u0431.004",
      "primitives": [
        {
          "attributes": {
            "POSITION": 0,
            "NORMAL": 1,
            "TEXCOORD_0": 2
          },
          "indices": 3,
          "material": 0
        }
      ]
    }
  ],
  "textures": [
    {
      "sampler": 0,
      "source": 0
    }
  ],
  "images": [
    {
      "bufferView": 4,
      "mimeType": "image/png",
      "name": "\u0411\u0430\u043d\u0430\u043d1"
    }
  ],
  "accessors": [
    {
      "bufferView": 0,
      "componentType": 5126,
      "count": 475,
      "max": [3.1084978580474854, 1.6193774938583374, 0.6365593671798706],
      "min": [-3.096501111984253, -0.8801015615463257, -0.6355587840080261],
      "type": "VEC3"
    },
    {
      "bufferView": 1,
      "componentType": 5126,
      "count": 475,
      "type": "VEC3"
    },
    {
      "bufferView": 2,
      "componentType": 5126,
      "count": 475,
      "type": "VEC2"
    },
    {
      "bufferView": 3,
      "componentType": 5123,
      "count": 2688,
      "type": "SCALAR"
    }
  ],
  "bufferViews": [
    {
      "buffer": 0,
      "byteLength": 5700,
      "byteOffset": 0
    },
    {
      "buffer": 0,
      "byteLength": 5700,
      "byteOffset": 5700
    },
    {
      "buffer": 0,
      "byteLength": 3800,
      "byteOffset": 11400
    },
    {
      "buffer": 0,
      "byteLength": 5376,
      "byteOffset": 15200
    },
    {
      "buffer": 0,
      "byteLength": 690343,
      "byteOffset": 20576
    }
  ],
  "samplers": [
    {
      "magFilter": 9729,
      "minFilter": 9987
    }
  ],
  "buffers": [
    {
      "byteLength": 710920,
      "uri": "data:application/octet-stream;base64,"
    }
  ]
}
