{
  "asset": {
    "generator": "Khronos glTF Blender I/O v3.2.43",
    "version": "2.0"
  },
  "extensionsUsed": ["KHR_materials_transmission"],
  "scene": 0,
  "scenes": [
    {
      "name": "cup",
      "nodes": [0]
    }
  ],
  "nodes": [
    {
      "mesh": 0,
      "name": "ShotCup004"
    }
  ],
  "materials": [
    {
      "alphaMode": "BLEND",
      "doubleSided": true,
      "extensions": {
        "KHR_materials_transmission": {
          "transmissionFactor": 1
        }
      },
      "name": "ShotCup001-007",
      "pbrMetallicRoughness": {
        "metallicFactor": 0,
        "metallicRoughnessTexture": {
          "index": 0
        }
      }
    }
  ],
  "meshes": [
    {
      "name": "ShotCup004",
      "primitives": [
        {
          "attributes": {
            "POSITION": 0,
            "NORMAL": 1,
            "TEXCOORD_0": 2,
            "TEXCOORD_1": 3
          },
          "indices": 4,
          "material": 0
        }
      ]
    }
  ],
  "textures": [
    {
      "sampler": 0,
      "source": 0
    }
  ],
  "images": [
    {
      "bufferView": 5,
      "mimeType": "image/png",
      "name": "Image"
    }
  ],
  "accessors": [
    {
      "bufferView": 0,
      "componentType": 5126,
      "count": 926,
      "max": [0.019812608137726784, 0.10964733362197876, 0.01974717527627945],
      "min": [
        -0.019681725651025772, 2.7346684916551567e-9, -0.019747165963053703
      ],
      "type": "VEC3"
    },
    {
      "bufferView": 1,
      "componentType": 5126,
      "count": 926,
      "type": "VEC3"
    },
    {
      "bufferView": 2,
      "componentType": 5126,
      "count": 926,
      "type": "VEC2"
    },
    {
      "bufferView": 3,
      "componentType": 5126,
      "count": 926,
      "type": "VEC2"
    },
    {
      "bufferView": 4,
      "componentType": 5123,
      "count": 4224,
      "type": "SCALAR"
    }
  ],
  "bufferViews": [
    {
      "buffer": 0,
      "byteLength": 11112,
      "byteOffset": 0
    },
    {
      "buffer": 0,
      "byteLength": 11112,
      "byteOffset": 11112
    },
    {
      "buffer": 0,
      "byteLength": 7408,
      "byteOffset": 22224
    },
    {
      "buffer": 0,
      "byteLength": 7408,
      "byteOffset": 29632
    },
    {
      "buffer": 0,
      "byteLength": 8448,
      "byteOffset": 37040
    },
    {
      "buffer": 0,
      "byteLength": 90,
      "byteOffset": 45488
    }
  ],
  "samplers": [
    {
      "magFilter": 9729,
      "minFilter": 9987
    }
  ],
  "buffers": [
    {
      "byteLength": 45580,
      "uri": "data:application/octet-stream;base64,"
    }
  ]
}
